<svg id="Layer_1" data-name="Layer 1" xmlns="http://www.w3.org/2000/svg" viewBox="0 0 122.88 105.67"><defs><style>.cls-1{fill-rule:evenodd;}</style></defs><title>book-store</title><path class="cls-1" d="M106.09,36.64c-1.25-.59-4.33-1.39-5.3-2.36a12.25,12.25,0,0,1-2.12-2.88,12.25,12.25,0,0,1-2.12,2.88c-2.14,2.14-7,3.46-10.29,3.46S78.11,36.42,76,34.28a12.25,12.25,0,0,1-2.12-2.88,12.25,12.25,0,0,1-2.12,2.88c-2.14,2.14-7,3.46-10.29,3.46s-8.15-1.32-10.29-3.46A12.25,12.25,0,0,1,49,31.4a12.25,12.25,0,0,1-2.12,2.88c-2.14,2.14-7,3.46-10.29,3.46s-8.15-1.32-10.29-3.46a12.25,12.25,0,0,1-2.12-2.88,12.25,12.25,0,0,1-2.12,2.88c-1.23,1.23-4.21,2.19-6.25,2.78a2.88,2.88,0,0,1,.07.59v61.7a1.1,1.1,0,0,0,.32.77,1.13,1.13,0,0,0,.78.33h88.87a1.07,1.07,0,0,0,.69-.26l.07-.07a1.08,1.08,0,0,0,.33-.77V37.65a2.63,2.63,0,0,1,.13-.8l-1-.21Zm-95.39.72a11.61,11.61,0,0,1-7.23-3.08A11.77,11.77,0,0,1,0,25.94V21.3H0a1.34,1.34,0,0,1,.17-.67L9.44.69A1.36,1.36,0,0,1,10.62,0h100.9a1.35,1.35,0,0,1,1.21.76l10,19.83a1.35,1.35,0,0,1,.19.63h0a.57.57,0,0,1,0,.13v4.58a11.77,11.77,0,0,1-3.47,8.34,10.74,10.74,0,0,1-7.25,3,2.73,2.73,0,0,1,0,.41v61.7a6.33,6.33,0,0,1-1.85,4.46l-.2.17a6.28,6.28,0,0,1-4.26,1.69H17a6.33,6.33,0,0,1-6.32-6.32V37.65c0-.09,0-.19,0-.29ZM39.52,80.14l.14-24.67H36.87V86.86a47.06,47.06,0,0,1,11.54-1.64,32.06,32.06,0,0,1,10.72,1.69,22.82,22.82,0,0,0-7.35-4,26.71,26.71,0,0,0-10.63-1.13,1.51,1.51,0,0,1-1.63-1.39,1.13,1.13,0,0,1,0-.26ZM80.39,54.19a1.33,1.33,0,0,1,0-.46v-5A23.27,23.27,0,0,0,70.12,50,14.14,14.14,0,0,0,63,55.57V84a36,36,0,0,1,7.89-4.09,22.68,22.68,0,0,1,9.52-1.36V54.19Zm3-1.75h4.1A1.52,1.52,0,0,1,89,54V88.84a1.52,1.52,0,0,1-1.52,1.52,1.62,1.62,0,0,1-.49-.08,47.09,47.09,0,0,0-12.57-2A29.15,29.15,0,0,0,62.3,90.72a1.6,1.6,0,0,1-1.72,0,29.15,29.15,0,0,0-12.16-2.49,47.09,47.09,0,0,0-12.57,2,1.57,1.57,0,0,1-.49.08,1.52,1.52,0,0,1-1.52-1.52V54a1.52,1.52,0,0,1,1.52-1.52h4.32l0-5a1.49,1.49,0,0,1,1.2-1.47h0a24,24,0,0,1,13.07,1,16.73,16.73,0,0,1,7.54,5.5,17.56,17.56,0,0,1,7.54-5.26A26.45,26.45,0,0,1,82.12,45.9a1.51,1.51,0,0,1,1.29,1.49h0v5Zm-19,34.24a32.47,32.47,0,0,1,10-1.46A47.06,47.06,0,0,1,86,86.86V55.47H83.42V80.28a1.52,1.52,0,0,1-1.52,1.51,1.34,1.34,0,0,1-.35,0,19.38,19.38,0,0,0-9.66,1,33.65,33.65,0,0,0-7.44,3.9Zm-4.5-3V55.52a13.39,13.39,0,0,0-7.05-5.77,20.83,20.83,0,0,0-10.18-1.09l-.17,30A29.25,29.25,0,0,1,52.71,80,25.81,25.81,0,0,1,60,83.73ZM22.11,22.84H3.44v3a8.48,8.48,0,0,0,8.43,8.46c2.32,0,6.24-.95,7.77-2.49a8.45,8.45,0,0,0,2.47-6v-3Zm-17.81-3H22.64l3-16.93h-14L4.3,19.82ZM74.43,2.89,75.7,19.82H96.21L92.76,2.89ZM71.69,19.82,70.43,2.89h-18L51.18,19.82Zm-24.52,0L48.41,2.89H29.66l-3,16.93ZM96.74,2.89l3.45,16.93h18.29L110.57,2.89Zm4,20v3a8.41,8.41,0,0,0,2.47,6c1.53,1.54,5.45,2.49,7.77,2.49a8.48,8.48,0,0,0,8.43-8.46v-3ZM76,22.84v3a8.42,8.42,0,0,0,2.48,6c1.53,1.54,5.44,2.49,7.76,2.49s6.23-.95,7.76-2.49a8.42,8.42,0,0,0,2.48-6v-3Zm-24.82,0v3a8.42,8.42,0,0,0,2.48,6c1.53,1.54,5.44,2.49,7.76,2.49s6.23-.95,7.76-2.49a8.42,8.42,0,0,0,2.48-6v-3Zm-24.82,0v3a8.42,8.42,0,0,0,2.48,6c1.53,1.54,5.44,2.49,7.76,2.49s6.23-.95,7.76-2.49a8.42,8.42,0,0,0,2.48-6v-3Z"/></svg>